<svg width="76" height="54" viewBox="0 0 76 54" fill="none" xmlns="http://www.w3.org/2000/svg">
<path d="M20.68 53.008C33.712 53.008 41.2 42.352 41.2 26.8C41.2 11.248 33.712 0.591997 20.68 0.591997C7.648 0.591997 0.16 11.248 0.16 26.8C0.16 42.352 7.648 53.008 20.68 53.008ZM20.68 41.776C14.632 41.776 11.68 36.52 11.68 26.8C11.68 17.08 14.632 11.824 20.68 11.824C26.728 11.824 29.68 17.08 29.68 26.8C29.68 36.52 26.728 41.776 20.68 41.776ZM41.5133 52H75.7853V40.912H58.8653L67.2173 32.488C71.8253 27.88 75.0653 22.696 75.0653 16.648C75.0653 6.496 67.0013 0.591997 58.0013 0.591997C51.0173 0.591997 44.2493 4.12 41.0093 11.608L50.7293 17.296C52.0973 14.128 54.6173 11.824 58.1453 11.824C61.5293 11.824 63.5453 13.984 63.5453 17.152C63.5453 20.104 61.3853 23.056 58.4333 26.08L41.5133 43.648V52Z" fill="#6078EA" fill-opacity="0.15"/>
</svg>
