<svg width="77" height="54" viewBox="0 0 77 54" fill="none" xmlns="http://www.w3.org/2000/svg">
<path d="M20.68 53.008C33.712 53.008 41.2 42.352 41.2 26.8C41.2 11.248 33.712 0.591997 20.68 0.591997C7.648 0.591997 0.16 11.248 0.16 26.8C0.16 42.352 7.648 53.008 20.68 53.008ZM20.68 41.776C14.632 41.776 11.68 36.52 11.68 26.8C11.68 17.08 14.632 11.824 20.68 11.824C26.728 11.824 29.68 17.08 29.68 26.8C29.68 36.52 26.728 41.776 20.68 41.776ZM65.8679 22.048L74.5799 10.96V1.6H42.1799V12.4H60.6119L51.4679 23.992L55.8599 30.544H58.2359C62.9879 30.544 65.0759 33.064 65.0759 36.16C65.0759 39.256 62.9879 41.776 58.2359 41.776C53.8439 41.776 51.6839 39.76 50.5319 36.448L40.5959 42.208C43.6919 49.624 50.6039 53.008 58.2359 53.008C67.9559 53.008 76.5959 47.248 76.5959 36.16C76.5959 29.176 72.0599 24.208 65.8679 22.048Z" fill="#6078EA" fill-opacity="0.15"/>
</svg>
