<svg width="64" height="54" viewBox="0 0 64 54" fill="none" xmlns="http://www.w3.org/2000/svg">
<path d="M20.68 53.008C33.712 53.008 41.2 42.352 41.2 26.8C41.2 11.248 33.712 0.591997 20.68 0.591997C7.648 0.591997 0.16 11.248 0.16 26.8C0.16 42.352 7.648 53.008 20.68 53.008ZM20.68 41.776C14.632 41.776 11.68 36.52 11.68 26.8C11.68 17.08 14.632 11.824 20.68 11.824C26.728 11.824 29.68 17.08 29.68 26.8C29.68 36.52 26.728 41.776 20.68 41.776ZM53.8253 1.6L40.6493 6.352L43.4573 16.216L52.3853 13.768V52H63.9053V1.6H53.8253Z" fill="#6078EA" fill-opacity="0.15"/>
</svg>
